<svg width="36" height="36" viewBox="0 0 28 29" fill="none" xmlns="http://www.w3.org/2000/svg">
<circle cx="14.0449" cy="14.5956" r="13.4551" fill="white" stroke="#CB3267"/>
<path d="M8.18168 7.5858V20.2003H15.0623V7.5858H8.18168ZM7.6083 6.43903H15.6357C15.7878 6.43903 15.9336 6.49944 16.0411 6.60697C16.1487 6.7145 16.2091 6.86034 16.2091 7.01241V20.7737C16.2091 20.9257 16.1487 21.0716 16.0411 21.1791C15.9336 21.2866 15.7878 21.347 15.6357 21.347H7.6083C7.45623 21.347 7.31038 21.2866 7.20285 21.1791C7.09532 21.0716 7.03491 20.9257 7.03491 20.7737V7.01241C7.03491 6.86034 7.09532 6.7145 7.20285 6.60697C7.31038 6.49944 7.45623 6.43903 7.6083 6.43903Z" fill="#CB3267"/>
<path d="M9.3285 9.87936H13.9156V11.0261H9.3285V9.87936ZM9.3285 13.3197H13.9156V14.4664H9.3285V13.3197ZM9.3285 16.76H13.9156V17.9068H9.3285V16.76ZM16.2091 14.4664H18.5027V15.6132H16.2091V14.4664ZM16.2091 16.76H18.5027V17.9068H16.2091V16.76ZM5.88818 20.2003H21.943V21.3471H5.88818V20.2003Z" fill="#CB3267"/>
<path d="M16.2093 12.1729V20.2003H19.6496V12.1729H16.2093ZM15.6359 11.0261H20.223C20.375 11.0261 20.5209 11.0865 20.6284 11.1941C20.7359 11.3016 20.7964 11.4474 20.7964 11.5995V20.7737C20.7964 20.9257 20.7359 21.0716 20.6284 21.1791C20.5209 21.2867 20.375 21.3471 20.223 21.3471H15.6359C15.4838 21.3471 15.338 21.2867 15.2304 21.1791C15.1229 21.0716 15.0625 20.9257 15.0625 20.7737V11.5995C15.0625 11.4474 15.1229 11.3016 15.2304 11.1941C15.338 11.0865 15.4838 11.0261 15.6359 11.0261Z" fill="#CB3267"/>
</svg>
