<svg width="28" height="29" viewBox="0 0 28 29" fill="none" xmlns="http://www.w3.org/2000/svg">
<circle cx="14.0449" cy="14.1686" r="13.4551" fill="white" stroke="#CB3267"/>
<path d="M18.2975 14.2535H17.7975V14.7535V16.5897C17.7975 17.1241 17.3614 17.5586 16.8368 17.5586H9.53346C9.00889 17.5586 8.57278 17.1241 8.57278 16.5897V7.17422H18.2975C20.2374 7.17422 21.8144 8.75632 21.8144 10.7139C21.8144 12.6714 20.2374 14.2535 18.2975 14.2535ZM17.7975 12.9173V13.4173H18.2975C19.0121 13.4173 19.6969 13.1318 20.2013 12.6245C20.7057 12.1173 20.9885 11.4299 20.9885 10.7139C20.9885 9.99777 20.7057 9.31044 20.2013 8.80324C19.6969 8.29593 19.0121 8.01042 18.2975 8.01042H17.7975V8.51042V12.9173ZM6.0166 19.6381V19.2931H21.8144V19.6381C21.8144 19.7606 21.767 19.8579 21.5875 19.9527C21.3839 20.0602 21.0557 20.1293 20.6346 20.1293H7.19638C6.77504 20.1293 6.44693 20.0602 6.24339 19.9527C6.064 19.8579 6.0166 19.7607 6.0166 19.6381Z" fill="#CB3267" stroke="#CB3267"/>
</svg>
