<svg width="101" height="103" viewBox="0 0 101 103" fill="none" xmlns="http://www.w3.org/2000/svg">
<path d="M73 7.3H66C64.1435 7.3 62.363 8.06911 61.0503 9.43812C59.7375 10.8071 59 12.6639 59 14.6L59 65.7C59 67.6361 59.7375 69.4929 61.0503 70.8619C62.363 72.2309 64.1435 73 66 73H94C95.8565 73 97.637 72.2309 98.9497 70.8619C100.263 69.4929 101 67.6361 101 65.7V14.6C101 12.6639 100.263 10.8071 98.9497 9.43812C97.637 8.06911 95.8565 7.3 94 7.3H87V0H73V7.3ZM97.5 47.45L83.885 40.15L80 54.75L62.5 32.85L76.115 36.5L80 21.9L97.5 47.45Z" fill="#CB3267"/>
<path d="M25.1563 38.6656C28.3154 38.6656 30.8765 36.1045 30.8765 32.9453C30.8765 29.7862 28.3154 27.2251 25.1563 27.2251C21.9971 27.2251 19.436 29.7862 19.436 32.9453C19.436 36.1045 21.9971 38.6656 25.1563 38.6656Z" fill="black"/>
<path d="M65.1295 82.3462L57.0844 84.3573L53.8663 69.3399C53.6696 68.4406 53.1723 67.6352 52.4565 67.0565C51.7406 66.4778 50.8489 66.1603 49.9284 66.1564H35.043L33.9586 56.7592H52.356V51.3894H33.3391L32.6454 45.3775C32.5848 44.8521 32.4213 44.3438 32.1642 43.8816C31.9071 43.4194 31.5615 43.0124 31.1471 42.6837C30.7328 42.3551 30.2577 42.1112 29.7491 41.9662C29.2405 41.8211 28.7083 41.7777 28.1829 41.8383L21.5149 42.6077L24.8524 71.5263H48.8438L52.9984 90.9142L66.4326 87.5556L65.1295 82.3462Z" fill="black"/>
<path d="M25.5067 97.033C20.838 97.0323 16.3146 95.4093 12.7103 92.4418C9.10604 89.4742 6.64492 85.3465 5.74797 80.7647C4.85102 76.183 5.574 71.4319 7.7932 67.3243C10.0124 63.2167 13.5899 60.0079 17.9138 58.2468L17.2796 52.7511C7.23972 56.1816 0 65.709 0 76.8961C0 90.9605 11.4423 102.403 25.5067 102.403C29.8961 102.401 34.2106 101.266 38.0334 99.1091C41.8561 96.9521 45.0578 93.8455 47.3291 90.0894L45.6436 82.2659C42.9587 90.3207 35.3402 97.033 25.5067 97.033Z" fill="black"/>
</svg>
