<svg width="105" height="105" viewBox="0 0 105 105" fill="none" xmlns="http://www.w3.org/2000/svg">
<path d="M44.3333 18.5H36.1667C34.0007 18.5 31.9235 19.3955 30.392 20.9896C28.8604 22.5837 28 24.7457 28 27L28 86.5C28 88.7543 28.8604 90.9163 30.392 92.5104C31.9235 94.1045 34.0007 95 36.1667 95H68.8333C70.9993 95 73.0765 94.1045 74.608 92.5104C76.1396 90.9163 77 88.7543 77 86.5L77 27C77 24.7457 76.1396 22.5837 74.608 20.9896C73.0765 19.3955 70.9993 18.5 68.8333 18.5H60.6667V10H44.3333V18.5ZM72.9167 65.25L57.0325 56.75L52.5 73.75L32.0833 48.25L47.9675 52.5L52.5 35.5L72.9167 65.25Z" fill="#CB3267"/>
</svg>
