<svg width="28" height="29" viewBox="0 0 28 29" fill="none" xmlns="http://www.w3.org/2000/svg">
<circle cx="14.0449" cy="14.3821" r="13.4551" fill="white" stroke="#CB3267"/>
<path d="M10.5176 18.9446L10.6083 18.9898M10.5176 18.9446L10.6083 18.9898M10.5176 18.9446L10.6083 18.9898M10.5176 18.9446L10.6083 18.9898M10.6036 8.88365C11.0959 8.79982 11.5728 8.38527 11.5728 7.78606C11.5728 7.22322 11.1017 6.68577 10.4571 6.76667L10.4568 6.76672C9.61568 6.87284 8.81595 7.194 8.13418 7.69926C7.45241 8.2045 6.91148 8.87686 6.56298 9.6518L7.01883 9.8568L6.56286 9.65208C6.22985 10.3938 6.84716 11.0754 7.52683 11.0754H7.53451L7.54218 11.0752C7.75666 11.0686 7.965 11.0026 8.14416 10.8846C8.32097 10.7682 8.46247 10.6057 8.5537 10.415C8.95754 9.6185 9.71364 9.03608 10.6036 8.88365ZM10.6036 8.88365C10.6034 8.88368 10.6033 8.88371 10.6031 8.88374L10.5194 8.39079L10.6038 8.88362C10.6037 8.88363 10.6037 8.88364 10.6036 8.88365ZM11.2563 17.9376L11.2098 17.0557L10.824 17.8305L10.6597 17.7898C7.86049 17.0962 6.0166 14.6399 6.0166 11.6911C6.0166 10.3435 6.54979 9.05154 7.49824 8.09925C8.44661 7.14704 9.73246 6.61246 11.0728 6.61246C12.4131 6.61246 13.699 7.14704 14.6473 8.09925C15.5958 9.05154 16.129 10.3435 16.129 11.6911C16.129 14.6399 14.2851 17.0962 11.4859 17.7898L11.6062 18.2751L11.2826 18.4366L11.2573 17.9563L11.2655 17.9399L11.2563 17.9376ZM11.3098 18.9528L11.3009 18.7831L11.3843 18.9503L11.3107 18.9692C11.3104 18.9638 11.3101 18.9583 11.3098 18.9528ZM11.8228 18.8374L11.6497 18.8819L11.6026 18.8941L11.5322 18.9122L11.4067 18.9445C11.4066 18.9208 11.4103 18.8971 11.4179 18.8743C11.4362 18.8192 11.4757 18.773 11.5285 18.7465C11.5814 18.72 11.6428 18.7155 11.6991 18.7344C11.707 18.737 11.7148 18.7401 11.7223 18.7436L11.7264 18.7604C11.7326 18.7589 11.7388 18.7574 11.745 18.7558C11.7775 18.7758 11.8043 18.8039 11.8228 18.8374Z" fill="#CB3267" stroke="#CB3267"/>
<path d="M18.3023 19.1965L18.2479 18.1692L17.7969 19.0717L17.7604 19.0627C15.6662 18.5456 14.2859 16.716 14.2859 14.5133C14.2859 14.1634 14.3346 13.8184 14.4282 13.4876C14.5343 13.8788 14.9241 14.1601 15.3286 14.1601H15.3363L15.3439 14.1599C15.5297 14.1542 15.7103 14.0972 15.8656 13.9953C16.0186 13.8949 16.1414 13.7548 16.2207 13.5901C16.5146 13.0135 17.0639 12.5926 17.7091 12.4825C17.7092 12.4824 17.7093 12.4824 17.7093 12.4824L17.6252 11.9895M18.3023 19.1965L17.6252 11.9895M18.3023 19.1965L18.3678 19.2127L18.3093 19.3294L18.3245 19.6157L18.4593 19.5481L18.3023 19.1965ZM17.6252 11.9895C17.8572 11.9503 18.0499 11.7626 18.0499 11.5271C18.0499 11.2916 17.8572 11.0979 17.6252 11.1269C17.0452 11.1999 16.4936 11.4206 16.0232 11.7679C15.5528 12.1152 15.1795 12.5776 14.9389 13.1107C14.8178 13.3794 15.0335 13.6601 15.3286 13.6601C15.4222 13.6573 15.5131 13.6286 15.5914 13.5772C15.6696 13.5259 15.7322 13.4539 15.7721 13.3692C16.1337 12.655 16.8151 12.1278 17.6252 11.9895ZM18.3482 19.8032C18.4002 19.7771 18.4586 19.7677 18.5154 19.7756L18.5391 19.8713L18.5636 19.9707L18.5005 19.987L18.447 20.0008L18.3647 20.0221L18.3462 20.0268L18.3456 20.0157L18.3348 19.8103C18.3392 19.8078 18.3436 19.8054 18.3482 19.8032Z" fill="#CB3267" stroke="#CB3267"/>
</svg>
