<svg width="100" height="100" viewBox="0 0 100 100" fill="none" xmlns="http://www.w3.org/2000/svg">
<path d="M79.1908 10.79H4.40794C3.72691 10.7906 3.07396 11.076 2.59259 11.5837C2.11122 12.0913 1.84082 12.7795 1.84082 13.4971V92.2929C1.84109 93.0104 2.11158 93.6985 2.59289 94.206C3.0742 94.7136 3.727 94.9991 4.40794 95H79.1908C79.5283 95.0001 79.8624 94.9302 80.1742 94.7942C80.4859 94.6582 80.7692 94.4588 81.0078 94.2074C81.2464 93.956 81.4356 93.6575 81.5647 93.329C81.6938 93.0005 81.7601 92.6484 81.76 92.2929V13.4971C81.7601 13.1416 81.6938 12.7895 81.5647 12.461C81.4356 12.1325 81.2464 11.834 81.0078 11.5826C80.7692 11.3312 80.4859 11.1318 80.1742 10.9958C79.8624 10.8598 79.5283 10.7899 79.1908 10.79ZM12.0533 21.5486H71.5496V84.2393H12.0533V21.5486ZM99.3518 67.8914H96.4147V59.5833C96.4149 59.4993 96.3993 59.4161 96.3689 59.3385C96.3384 59.2608 96.2938 59.1903 96.2375 59.1308C96.1812 59.0714 96.1143 59.0242 96.0406 58.992C95.967 58.9599 95.8881 58.9433 95.8083 58.9433H90.3735C90.2938 58.9433 90.2148 58.9599 90.1412 58.992C90.0676 59.0242 90.0007 59.0714 89.9443 59.1308C89.888 59.1903 89.8434 59.2608 89.813 59.3385C89.7826 59.4161 89.767 59.4993 89.7671 59.5833V67.8904H86.829C86.7179 67.8914 86.6091 67.9244 86.5145 67.9858C86.4199 68.0473 86.343 68.1348 86.2922 68.239C86.2414 68.3432 86.2186 68.46 86.2263 68.5769C86.234 68.6937 86.2718 68.8061 86.3358 68.9019L92.6175 78.1539C92.6735 78.2364 92.7474 78.3036 92.833 78.3499C92.9186 78.3962 93.0135 78.4203 93.1098 78.4202H93.1108C93.2074 78.4202 93.3025 78.3958 93.3883 78.3491C93.4741 78.3024 93.5481 78.2347 93.604 78.1518L99.846 68.9008C99.9106 68.8052 99.9489 68.6928 99.9568 68.5757C99.9648 68.4587 99.9419 68.3416 99.8909 68.2374C99.8398 68.1331 99.7625 68.0457 99.6674 67.9847C99.5723 67.9236 99.4631 67.8914 99.3518 67.8914ZM86.8698 37.8986H89.8068V46.2067C89.8068 46.56 90.0789 46.8456 90.4142 46.8467L95.8491 46.8456C95.9288 46.8458 96.0077 46.8294 96.0813 46.7973C96.155 46.7652 96.2218 46.7182 96.2782 46.6588C96.3345 46.5995 96.3792 46.529 96.4096 46.4514C96.44 46.3738 96.4556 46.2907 96.4555 46.2067V37.8986H99.3936C99.505 37.8986 99.6143 37.8662 99.7094 37.805C99.8045 37.7439 99.8818 37.6563 99.9327 37.5519C99.9837 37.4475 100.006 37.3303 99.9983 37.2132C99.9902 37.0961 99.9516 36.9836 99.8868 36.8881L93.605 27.6372C93.5492 27.5543 93.4754 27.4868 93.3898 27.4401C93.3042 27.3934 93.2092 27.3689 93.1128 27.3687H93.1118C93.015 27.3693 92.9197 27.3942 92.8337 27.4413C92.7478 27.4883 92.6737 27.5562 92.6175 27.6393L86.3765 36.8892C86.3124 36.9848 86.2744 37.0971 86.2666 37.2139C86.2589 37.3307 86.2817 37.4475 86.3325 37.5516C86.3834 37.6557 86.4604 37.743 86.5551 37.8042C86.6498 37.8654 86.7587 37.8981 86.8698 37.8986Z" fill="#CB3267"/>
<path d="M28.4977 38.879C31.2865 38.879 33.5473 36.4968 33.5473 33.5582C33.5473 30.6196 31.2865 28.2375 28.4977 28.2375C25.7088 28.2375 23.448 30.6196 23.448 33.5582C23.448 36.4968 25.7088 38.879 28.4977 38.879Z" fill="black"/>
<path d="M38.0588 40.3093V40.2835H19.9677V40.3018C19.3402 40.3018 18.7382 40.5632 18.293 41.0292C17.8477 41.4951 17.5955 42.1276 17.5911 42.7888H17.5891V57.8652H17.6125C17.6125 58.4584 17.8362 59.0273 18.2343 59.4468C18.6324 59.8663 19.1723 60.102 19.7353 60.102C20.2983 60.102 20.8383 59.8663 21.2364 59.4468C21.6345 59.0273 21.8581 58.4584 21.8581 57.8652H21.8632V47.3396H21.8693C21.8757 47.1559 21.9493 46.982 22.0747 46.8543C22.2001 46.7265 22.3675 46.6549 22.542 46.6545C22.9068 46.6545 23.2003 46.9584 23.2156 47.3396H23.2217V74.9378C23.2219 75.2815 23.2863 75.6217 23.4113 75.9392C23.5363 76.2566 23.7194 76.5449 23.9502 76.7878C24.181 77.0306 24.4549 77.2232 24.7563 77.3545C25.0576 77.4859 25.3806 77.5533 25.7068 77.5531C26.0329 77.5529 26.3558 77.485 26.6571 77.3533C26.9583 77.2216 27.232 77.0287 27.4625 76.7855C27.693 76.5424 27.8757 76.2538 28.0004 75.9362C28.125 75.6186 28.189 75.2783 28.1888 74.9346V61.0383H28.2072C28.2072 60.8461 28.2796 60.6617 28.4086 60.5258C28.5376 60.3899 28.7126 60.3135 28.8951 60.3135C29.0775 60.3135 29.2525 60.3899 29.3815 60.5258C29.5105 60.6617 29.5829 60.8461 29.5829 61.0383H29.6003V74.9346C29.6188 75.6157 29.8886 76.2623 30.3523 76.7371C30.816 77.212 31.4372 77.4776 32.0838 77.4776C32.7305 77.4776 33.3516 77.212 33.8154 76.7371C34.2791 76.2623 34.5489 75.6157 34.5674 74.9346V47.3407C34.5638 47.2445 34.5788 47.1486 34.6113 47.0586C34.6438 46.9687 34.6931 46.8865 34.7565 46.8172C34.8198 46.7478 34.8958 46.6926 34.9798 46.6549C35.0639 46.6172 35.1543 46.5978 35.2456 46.5978C35.3369 46.5978 35.4274 46.6172 35.5114 46.6549C35.5955 46.6926 35.6714 46.7478 35.7347 46.8172C35.7981 46.8865 35.8475 46.9687 35.8799 47.0586C35.9124 47.1486 35.9274 47.2445 35.9238 47.3407V57.8663H35.9473C35.9473 58.4596 36.171 59.0287 36.5692 59.4483C36.9674 59.8678 37.5074 60.1036 38.0706 60.1036C38.6337 60.1036 39.1738 59.8678 39.572 59.4483C39.9702 59.0287 40.1939 58.4596 40.1939 57.8663H40.1979V42.7898C40.1958 42.1708 39.9759 41.5746 39.5808 41.1164C39.1857 40.6582 38.6435 40.3707 38.0588 40.3093Z" fill="black"/>
<path d="M54.3146 38.879C57.1034 38.879 59.3642 36.4968 59.3642 33.5582C59.3642 30.6196 57.1034 28.2375 54.3146 28.2375C51.5257 28.2375 49.2649 30.6196 49.2649 33.5582C49.2649 36.4968 51.5257 38.879 54.3146 38.879Z" fill="black"/>
<path d="M63.8757 40.3093V40.2835H45.7846V40.3018C45.1571 40.3018 44.5551 40.5632 44.1099 41.0292C43.6646 41.4951 43.4124 42.1276 43.408 42.7888H43.406V57.8652H43.4294C43.4294 58.4584 43.6531 59.0273 44.0512 59.4468C44.4493 59.8663 44.9892 60.102 45.5522 60.102C46.1152 60.102 46.6552 59.8663 47.0533 59.4468C47.4514 59.0273 47.675 58.4584 47.675 57.8652H47.6801V47.3396H47.6862C47.6926 47.1559 47.7662 46.982 47.8916 46.8543C48.017 46.7265 48.1844 46.6549 48.3589 46.6545C48.7237 46.6545 49.0172 46.9584 49.0325 47.3396H49.0386V74.9378C49.039 75.6319 49.3011 76.2973 49.7671 76.7878C49.9979 77.0306 50.2718 77.2232 50.5732 77.3545C50.8745 77.4859 51.1975 77.5533 51.5237 77.5531C51.8498 77.5529 52.1727 77.485 52.474 77.3533C52.7752 77.2216 53.0489 77.0287 53.2794 76.7855C53.5099 76.5424 53.6926 76.2538 53.8172 75.9362C53.9419 75.6186 54.0059 75.2783 54.0057 74.9346V61.0383H54.0241C54.0241 60.8461 54.0965 60.6617 54.2255 60.5258C54.3545 60.3899 54.5295 60.3135 54.712 60.3135C54.8944 60.3135 55.0694 60.3899 55.1984 60.5258C55.3274 60.6617 55.3998 60.8461 55.3998 61.0383H55.4172V74.9346C55.4357 75.6157 55.7055 76.2623 56.1692 76.7371C56.6329 77.212 57.2541 77.4776 57.9007 77.4776C58.5474 77.4776 59.1685 77.212 59.6322 76.7371C60.096 76.2623 60.3658 75.6157 60.3843 74.9346V47.3407C60.3807 47.2445 60.3957 47.1486 60.4282 47.0586C60.4606 46.9687 60.51 46.8865 60.5734 46.8172C60.6367 46.7478 60.7127 46.6926 60.7967 46.6549C60.8808 46.6172 60.9712 46.5978 61.0625 46.5978C61.1538 46.5978 61.2443 46.6172 61.3283 46.6549C61.4123 46.6926 61.4883 46.7478 61.5516 46.8172C61.615 46.8865 61.6644 46.9687 61.6968 47.0586C61.7293 47.1486 61.7443 47.2445 61.7407 47.3407V57.8663H61.7642C61.7642 58.4596 61.9879 59.0287 62.3861 59.4483C62.7843 59.8678 63.3243 60.1036 63.8875 60.1036C64.4506 60.1036 64.9907 59.8678 65.3889 59.4483C65.7871 59.0287 66.0108 58.4596 66.0108 57.8663H66.0148V42.7898C66.0125 42.1709 65.7925 41.5748 65.3975 41.1166C65.0024 40.6585 64.4603 40.3709 63.8757 40.3093Z" fill="black"/>
</svg>
