<?xml version="1.0" encoding="UTF-8"?><svg id="a" xmlns="http://www.w3.org/2000/svg" viewBox="0 0 354.14 62.57"><defs><style>.b{fill:#ed786a;}.c{fill:#f0a044;}</style></defs><g><path class="b" d="M6.96,20.73l.53-1.55c1.09,0,2.17-.2,3.26-.6,1.08-.4,2.11-.96,3.07-1.67,.96-.72,1.81-1.55,2.53-2.49,.73-.95,1.28-1.96,1.65-3.05l.62-1.81h2.58l-3.31,9.62h12.37l-.53,1.55h-12.37L4.43,58.28c-.3,.86-.39,1.53-.27,2.02,.12,.49,.61,.73,1.47,.73,.69,0,1.39-.34,2.12-1.03,.72-.69,1.51-1.43,2.36-2.23,.85-.8,1.75-1.55,2.7-2.23,.95-.69,1.97-1.03,3.06-1.03,1.49,0,2.61,.24,3.36,.73,.75,.49,1.33,1.04,1.74,1.67,.37,.75,.6,1.58,.69,2.49-.57-.17-1.12-.29-1.64-.34-.53-.06-1.02-.09-1.47-.09-1.26,0-2.43,.19-3.5,.56-1.07,.37-2.13,.79-3.18,1.25-1.05,.46-2.11,.87-3.18,1.25-1.07,.37-2.27,.56-3.59,.56-1.55,0-2.71-.27-3.5-.82-.79-.54-1.28-1.32-1.48-2.32-.2-1-.15-2.22,.14-3.65,.29-1.43,.74-3.04,1.36-4.81L12.03,20.73H6.96Z"/><path class="b" d="M44,1.05h5.33l-12.93,37.55c1.5-2.69,3.15-5.25,4.97-7.69,1.81-2.43,3.71-4.57,5.68-6.4,1.98-1.83,3.99-3.28,6.05-4.34,2.05-1.06,4.08-1.59,6.09-1.59,2.35,0,3.95,.37,4.81,1.12,.86,.75,1.22,1.78,1.08,3.09-.14,1.32-.67,2.89-1.58,4.73-.92,1.83-1.96,3.81-3.12,5.93-1.16,2.12-2.32,4.37-3.48,6.75-1.16,2.38-2.05,4.8-2.67,7.26-.62,2.46-.86,4.91-.73,7.35,.14,2.44,.9,4.8,2.29,7.09h-5.93c-1.28-3.27-1.76-6.5-1.43-9.71,.33-3.21,1.06-6.29,2.19-9.24,1.13-2.95,2.42-5.7,3.87-8.25,1.45-2.55,2.65-4.75,3.61-6.62,.96-1.86,1.42-3.32,1.38-4.38-.04-1.06-.97-1.59-2.8-1.59-2.12,0-4.23,.67-6.32,2.02-2.1,1.35-4.13,3.14-6.1,5.37-1.97,2.23-3.87,4.84-5.7,7.82-1.83,2.98-3.47,6.1-4.94,9.37l-5.24,15.21h-5.33L44,1.05Z"/><path class="b" d="M77.92,19.18l-9.62,27.93c-.38,1.26-.7,2.52-.96,3.78-.26,1.26-.37,2.49-.33,3.7,.04,1.2,.27,2.41,.69,3.61,.42,1.2,1.06,2.44,1.95,3.7h-6.44c-1.13-2.86-1.6-5.63-1.4-8.29,.2-2.66,.8-5.46,1.81-8.38l8.96-26.04h5.33Zm0-7.73c-1.32,0-2.27-.44-2.85-1.33-.58-.89-.65-1.99-.19-3.31,.45-1.32,1.28-2.42,2.47-3.31,1.19-.89,2.45-1.33,3.77-1.33s2.28,.44,2.89,1.33c.61,.89,.69,1.99,.24,3.31-.45,1.32-1.29,2.42-2.51,3.31-1.22,.89-2.49,1.33-3.81,1.33Z"/><path class="b" d="M85.87,62.57c-1.09,0-2.11-.12-3.06-.34-.95-.23-1.86-.5-2.73-.82-.87-.31-1.72-.59-2.55-.82-.84-.23-1.69-.34-2.55-.34-.63,0-1.26,.07-1.88,.21-.62,.14-1.29,.42-2,.82,1.74-2.06,3.19-3.49,4.36-4.3,1.16-.8,2.15-1.2,2.95-1.2s1.5,.27,2.08,.82c.59,.54,1.21,1.15,1.87,1.8,.66,.66,1.41,1.26,2.26,1.8,.84,.54,1.89,.82,3.16,.82,1.38,0,2.64-.21,3.79-.64,1.15-.43,2.16-.99,3.03-1.67,.87-.69,1.59-1.46,2.17-2.32,.58-.86,1.02-1.72,1.32-2.58,.65-1.89,.66-3.58,.03-5.07-.63-1.49-1.58-2.89-2.85-4.21-1.27-1.32-2.68-2.61-4.25-3.87-1.57-1.26-2.98-2.56-4.24-3.91-1.26-1.35-2.18-2.82-2.77-4.43-.59-1.6-.54-3.41,.15-5.41,.39-1.15,.92-2.22,1.58-3.22,.66-1,1.5-1.88,2.53-2.62,1.03-.74,2.31-1.35,3.84-1.8,1.53-.46,3.36-.69,5.48-.69,1.15,0,2.21,.12,3.19,.34,.98,.23,1.93,.5,2.86,.82s1.85,.59,2.77,.82c.92,.23,1.84,.34,2.76,.34,1.43,0,2.81-.34,4.14-1.03-1.78,2.01-3.22,3.41-4.33,4.21-1.11,.8-2.06,1.2-2.86,1.2-.75,0-1.41-.27-2-.82-.59-.54-1.18-1.15-1.79-1.81-.6-.66-1.31-1.26-2.13-1.8-.81-.54-1.88-.82-3.2-.82-2.01,0-3.63,.52-4.87,1.55-1.24,1.03-2.1,2.23-2.58,3.61-.55,1.6-.48,3.09,.22,4.47,.7,1.37,1.7,2.72,2.99,4.04,1.29,1.32,2.75,2.62,4.37,3.91,1.62,1.29,3.05,2.66,4.29,4.12,1.24,1.46,2.16,3.04,2.75,4.73,.59,1.69,.52,3.6-.21,5.71-1.12,3.26-3.35,5.81-6.67,7.65-3.32,1.83-7.13,2.75-11.43,2.75Z"/></g><g><path class="c" d="M183.94,62.4l-7.65-16.84h-35.49l-7.65,16.84h-4.64L156.53,1.82h4.3l28.01,60.58h-4.9ZM158.59,6.72l-15.9,34.8h31.71l-15.81-34.8Z"/><path class="c" d="M225.48,62.4h-26.12V2.25h24.83c11.69,0,19.5,5.76,19.5,14.78v.17c0,8.16-5.33,12.29-10.23,14.26,7.22,1.89,13.58,6.01,13.58,14.35v.17c0,10.05-8.59,16.41-21.57,16.41Zm13.66-44.94c0-6.62-5.41-11.08-15.04-11.08h-20.28V30.01h19.85c9.02,0,15.47-4.38,15.47-12.37v-.17Zm3.35,28.35c0-7.39-6.44-11.69-18.3-11.69h-20.36v24.14h21.82c10.31,0,16.84-4.73,16.84-12.29v-.17Z"/><path class="c" d="M260.35,62.4V2.25h4.47V58.28h35.31v4.12h-39.78Z"/><path class="c" d="M310.92,62.4V2.25h42.79V6.38h-38.32V30.01h34.46v4.12h-34.46v24.14h38.75v4.12h-43.22Z"/></g><path class="b" d="M130.42,12.25c2.22,1.06,4.57,1.86,6.99,2.36-1.65-1.84-3.52-3.48-5.54-4.87,2.03-1.4,3.89-3.03,5.54-4.87-2.42,.51-4.77,1.31-6.99,2.37-.2-2.45-.68-4.89-1.45-7.24-.77,2.35-1.25,4.78-1.45,7.24-2.22-1.06-4.57-1.86-6.99-2.37,1.65,1.84,3.52,3.47,5.54,4.87-2.03,1.39-3.89,3.03-5.54,4.87,2.42-.51,4.77-1.31,6.99-2.36,.19,2.45,.67,4.88,1.45,7.23,.77-2.35,1.25-4.78,1.45-7.23Z"/></svg>