<svg width="28" height="29" viewBox="0 0 28 29" fill="none" xmlns="http://www.w3.org/2000/svg">
<circle cx="13.9551" cy="14.1686" r="13.4551" fill="white" stroke="#CB3267"/>
<path d="M17.3589 9.24559V9.74559H17.8589H19.5531C20.2076 9.74559 20.7472 10.2848 20.7472 10.9438V21.1332C20.7472 21.7923 20.2076 22.3315 19.5531 22.3315H7.69413C7.0397 22.3315 6.5001 21.7924 6.5 21.1334C6.5 21.1334 6.5 21.1333 6.5 21.1332L6.50847 10.9442V10.9438C6.50847 10.2815 7.04289 9.74559 7.69413 9.74559H9.38827H9.88827V9.24559C9.88827 7.17703 11.563 5.5 13.6236 5.5C15.6842 5.5 17.3589 7.17703 17.3589 9.24559ZM16.1648 9.74559H16.6648V9.24559C16.6648 7.56105 15.307 6.19824 13.6236 6.19824C11.9402 6.19824 10.5824 7.56105 10.5824 9.24559V9.74559H11.0824H16.1648ZM9.38827 10.4438H8.88827V10.9438C8.88827 13.5624 11.0084 15.6894 13.6236 15.6894C16.2388 15.6894 18.3589 13.5624 18.3589 10.9438V10.4438H17.8589H16.1648H15.6648V10.9438C15.6648 12.0784 14.7525 12.9912 13.6236 12.9912C12.4948 12.9912 11.5824 12.0784 11.5824 10.9438V10.4438H11.0824H9.38827Z" fill="#CB3267" stroke="#CB3267"/>
</svg>
