<svg width="28" height="28" viewBox="0 0 28 28" fill="none" xmlns="http://www.w3.org/2000/svg">
<circle cx="13.9551" cy="13.9551" r="13.4551" fill="white" stroke="#CB3267"/>
<path d="M11.3229 21.983C11.3195 21.9829 11.3144 21.9826 11.3078 21.9822C11.2892 21.9809 11.2596 21.9781 11.2229 21.9721C11.1469 21.9598 11.0551 21.9362 10.9709 21.8947C10.8886 21.8541 10.8259 21.8028 10.7838 21.738C10.7442 21.6772 10.701 21.5718 10.7081 21.3824C10.7081 21.3824 10.7081 21.3823 10.7081 21.3822L10.9867 14.1037C10.9867 14.1037 10.9867 14.1036 10.9867 14.1036C10.9867 14.1035 10.9867 14.1035 10.9867 14.1034C11.0039 13.659 10.7505 13.3298 10.5173 13.1101C10.2961 12.9019 10.0122 12.7179 9.77639 12.565C9.76295 12.5563 9.74968 12.5477 9.73657 12.5392C9.46922 12.3656 9.26658 12.2293 9.13406 12.0949C9.07172 12.0316 9.04488 11.9879 9.03427 11.9634C9.02676 11.946 9.02763 11.9406 9.02888 11.9336C9.02889 11.9336 9.02889 11.9336 9.02889 11.9335C9.0289 11.9335 9.02891 11.9334 9.02892 11.9334L9.47079 9.4912L9.43083 10.1338L9.413 10.4204L9.65157 10.5802L10.4874 11.1401L11.2165 11.6286L11.2649 10.7523L11.3229 9.70397L11.3808 10.7523L11.4293 11.6286L12.1583 11.1401L12.9941 10.5802L13.2327 10.4204L13.2149 10.1338L13.1749 9.4912L13.6046 11.8658C13.5935 11.9109 13.5565 11.9838 13.4425 12.0948C13.2947 12.2387 13.0897 12.3781 12.8338 12.5509L12.8234 12.558C12.5905 12.7153 12.3087 12.9056 12.0912 13.1249C11.8668 13.351 11.6429 13.6753 11.659 14.1031L11.659 14.1034L11.9376 21.3822C11.9448 21.5717 11.9015 21.6772 11.8619 21.738C11.8198 21.8028 11.7571 21.8541 11.6748 21.8947C11.5907 21.9362 11.4988 21.9598 11.4228 21.9721C11.3861 21.9781 11.3565 21.9809 11.3379 21.9822C11.3313 21.9826 11.3262 21.9829 11.3229 21.983ZM18.0213 21.9823C18.0162 21.9826 18.0121 21.9829 18.0092 21.983C18.0053 21.9828 17.9994 21.9825 17.992 21.982C17.9713 21.9806 17.939 21.9775 17.8994 21.9712C17.8174 21.9582 17.7196 21.9336 17.6318 21.8912C17.5453 21.8495 17.4857 21.7991 17.4488 21.741C17.4155 21.6885 17.3763 21.592 17.3928 21.4084C17.3928 21.4083 17.3928 21.4082 17.3928 21.4081L17.95 15.2492L17.9993 14.7041H17.452C17.274 14.7041 16.9316 14.6609 16.6533 14.5332C16.3799 14.4079 16.2804 14.2639 16.2804 14.0843V11.2847C16.2804 10.7539 16.3169 10.041 16.4083 9.36527C16.5021 8.67062 16.6453 8.0852 16.8251 7.76101L16.8305 7.75128L16.8354 7.74132C17.0574 7.29525 17.4608 6.89969 17.9184 6.61354C18.1641 6.45991 18.407 6.34908 18.6236 6.27872V21.3633C18.6236 21.5563 18.577 21.6677 18.5328 21.7343C18.4867 21.8039 18.4217 21.8563 18.3419 21.8964C18.2601 21.9375 18.1723 21.9606 18.1007 21.9725C18.0661 21.9783 18.0384 21.981 18.0213 21.9823Z" fill="#CB3267" stroke="#CB3267"/>
</svg>
