<svg width="38" height="41" viewBox="0 0 38 41" fill="none" xmlns="http://www.w3.org/2000/svg">
<path d="M10.4971 5.87807C11.9515 5.64324 12.9335 4.23221 12.6903 2.72644C12.4472 1.22068 11.0711 0.190377 9.61669 0.425207C8.1623 0.660036 7.18037 2.07107 7.42349 3.57683C7.66661 5.0826 9.04273 6.1129 10.4971 5.87807Z" fill="black"/>
<path d="M32.2612 23.7263L28.7122 25.2829L26.075 18.3644C25.9152 17.9504 25.6243 17.6034 25.2502 17.3808C24.8761 17.1582 24.4412 17.0732 24.0171 17.1397L17.1643 18.2462L15.9419 13.8478L24.4115 12.4803L23.9983 9.92086L15.2435 11.3344L14.4614 8.52055C14.3931 8.27463 14.2787 8.04451 14.1248 7.84331C13.9709 7.64212 13.7804 7.47379 13.5644 7.34795C13.3483 7.22211 13.1108 7.14121 12.8655 7.10988C12.6202 7.07855 12.3719 7.0974 12.1347 7.16535L9.12412 8.02772L12.8861 21.5631L23.9311 19.7798L27.3358 28.7119L33.262 26.1124L32.2612 23.7263Z" fill="black"/>
<path d="M15.1504 33.6717C13.001 34.0184 10.7936 33.5811 8.90595 32.4346C7.01828 31.2881 5.56759 29.5036 4.80206 27.3865C4.03653 25.2694 4.00373 22.9511 4.70928 20.8284C5.41483 18.7056 6.81488 16.9103 8.66991 15.7495L7.95503 13.1772C3.59695 15.5585 0.997211 20.6378 1.85814 25.9698C2.94051 32.6734 9.08877 37.2766 15.5636 36.2312C17.5842 35.9039 19.4832 35.0424 21.077 33.7302C22.6709 32.4179 23.9058 30.6992 24.6624 28.7401L23.2844 25.1365C22.6682 29.1752 19.6774 32.9408 15.1504 33.6717Z" fill="black"/>
<path d="M37.7767 28.8582V40.1082H12.7767L14.2767 39.3582L37.7767 28.8582Z" fill="black"/>
</svg>
