<svg width="97" height="101" viewBox="0 0 97 101" fill="none" xmlns="http://www.w3.org/2000/svg">
<path d="M26.2476 14.596C29.8694 14.0344 32.3341 10.5393 31.7526 6.78954C31.1712 3.03979 27.7637 0.455301 24.1419 1.01693C20.5201 1.57856 18.0554 5.07362 18.6368 8.82337C19.2183 12.5731 22.6257 15.1576 26.2476 14.596Z" fill="black"/>
<path d="M80.1141 59.3358L71.2609 63.1532L64.8076 45.9006C64.4166 44.8682 63.6982 44.0006 62.771 43.441C61.8438 42.8813 60.7631 42.663 59.707 42.8221L42.6418 45.4683L39.6691 34.5072L60.7606 31.2366L59.7723 24.863L37.9704 28.2437L36.0686 21.2313C35.9024 20.6185 35.6214 20.0442 35.2416 19.5413C34.8618 19.0384 34.3907 18.6167 33.8552 18.3003C33.3196 17.9839 32.7301 17.7789 32.1203 17.6972C31.5105 17.6154 30.8924 17.6585 30.3012 17.8238L22.7984 19.9225L31.9472 53.6536L59.452 49.3885L67.7834 71.6622L82.5668 65.2874L80.1141 59.3358Z" fill="black"/>
<path d="M37.3923 83.8121C32.0397 84.6412 26.5552 83.519 21.8769 80.6375C17.1986 77.756 13.6174 73.2941 11.7458 68.0153C9.87417 62.7365 9.82856 56.9688 11.6167 51.6988C13.4049 46.4289 16.9157 41.9842 21.5486 39.1252L19.8101 32.7149C8.93132 38.5715 2.38497 51.167 4.444 64.4453C7.03263 81.1389 22.2566 92.686 38.3806 90.1857C43.4123 89.4028 48.1499 87.2892 52.1355 84.0494C56.1211 80.8096 59.2199 76.553 61.1324 71.691L57.7601 62.7047C56.1645 72.7424 48.6658 82.0639 37.3923 83.8121Z" fill="black"/>
<path d="M96.2024 67V101H20.2024L24.7624 98.7333L96.2024 67Z" fill="#CB3267"/>
</svg>
