<svg width="28" height="29" viewBox="0 0 28 29" fill="none" xmlns="http://www.w3.org/2000/svg">
<circle cx="13.9551" cy="14.3821" r="13.4551" fill="white" stroke="#CB3267"/>
<g clip-path="url(#clip0_248_205)">
<path d="M9.17416 5.07877C7.24807 5.07877 5.68539 6.64072 5.68539 8.56753V17.8709C5.68539 19.5826 6.96461 21.0581 8.63267 21.3197L6.96097 22.9914C6.70658 23.2458 6.88829 23.6855 7.28077 23.6855H8.69082C8.99972 23.6855 9.29772 23.562 9.51577 23.3439L11.5 21.3597H16.1517L18.1359 23.3439C18.3551 23.562 18.6509 23.6855 18.9591 23.6855H20.4022C20.7649 23.6855 20.9466 23.2458 20.69 22.9914L19.0176 21.3197C20.6878 21.0581 21.9663 19.5826 21.9663 17.8709V8.56753C21.9663 6.64072 20.4044 5.07877 18.4775 5.07877H9.17416ZM19.6405 13.2192C19.6405 13.8625 19.1197 14.3821 18.4775 14.3821H15.5702C14.927 14.3821 14.4073 13.8625 14.4073 13.2192V9.73046C14.4073 9.08722 14.927 8.56753 15.5702 8.56753H18.4775C19.1197 8.56753 19.6405 9.08722 19.6405 9.73046V13.2192ZM12.0815 8.56753C12.7247 8.56753 13.2444 9.08722 13.2444 9.73046V13.2192C13.2444 13.8625 12.7247 14.3821 12.0815 14.3821H9.17416C8.53092 14.3821 8.01124 13.8625 8.01124 13.2192V9.73046C8.01124 9.08722 8.53092 8.56753 9.17416 8.56753H12.0815ZM18.4775 16.708C19.1197 16.708 19.6405 17.2277 19.6405 17.8709C19.6405 18.5142 19.1197 19.0338 18.4775 19.0338C17.8343 19.0338 17.3146 18.5142 17.3146 17.8709C17.3146 17.2277 17.8343 16.708 18.4775 16.708ZM9.17416 19.0338C8.53092 19.0338 8.01124 18.5142 8.01124 17.8709C8.01124 17.2277 8.53092 16.708 9.17416 16.708C9.8174 16.708 10.3371 17.2277 10.3371 17.8709C10.3371 18.5142 9.8174 19.0338 9.17416 19.0338Z" fill="#CB3267"/>
</g>
<defs>
<clipPath id="clip0_248_205">
<rect width="16.2809" height="18.6068" fill="white" transform="matrix(-1 0 0 1 21.9663 5.07877)"/>
</clipPath>
</defs>
</svg>
