<svg width="16" height="16" viewBox="0 0 16 16" fill="none" xmlns="http://www.w3.org/2000/svg">
<g clip-path="url(#clip0_273_3)">
<path d="M8.864 0.0460003C7.908 -0.193 7.02 0.53 6.956 1.466C6.884 2.517 6.726 3.482 6.528 4.056C6.403 4.416 6.049 5.069 5.488 5.695C4.931 6.318 4.206 6.873 3.357 7.105C2.685 7.288 2 7.87 2 8.72V12.721C2 13.566 2.682 14.185 3.448 14.266C4.518 14.38 5.012 14.681 5.516 14.989L5.564 15.019C5.836 15.184 6.142 15.367 6.534 15.503C6.931 15.639 7.395 15.72 8 15.72H11.5C12.437 15.72 13.099 15.243 13.434 14.656C13.5959 14.379 13.6834 14.0648 13.688 13.744C13.688 13.592 13.665 13.432 13.611 13.28C13.812 13.017 13.991 12.702 14.099 12.379C14.209 12.049 14.271 11.617 14.103 11.23C14.172 11.1 14.223 10.961 14.262 10.827C14.339 10.557 14.375 10.259 14.375 9.97C14.375 9.682 14.339 9.385 14.262 9.114C14.227 8.98942 14.1808 8.86825 14.124 8.752C14.2991 8.50287 14.4118 8.21531 14.4525 7.91354C14.4932 7.61177 14.4608 7.30463 14.358 7.018C14.152 6.426 13.676 5.918 13.158 5.746C12.311 5.464 11.355 5.47 10.642 5.535C10.494 5.54832 10.3463 5.56499 10.199 5.585C10.5459 4.09939 10.5246 2.55151 10.137 1.076C10.0696 0.839589 9.9402 0.625485 9.76228 0.45583C9.58436 0.286175 9.36435 0.167128 9.125 0.111L8.864 0.0460003ZM11.5 14.721H8C7.49 14.721 7.137 14.652 6.86 14.557C6.579 14.46 6.354 14.329 6.084 14.164L6.044 14.14C5.489 13.801 4.846 13.409 3.554 13.272C3.221 13.236 3 12.982 3 12.722V8.72C3 8.466 3.226 8.177 3.62 8.07C4.715 7.77 5.597 7.074 6.234 6.362C6.869 5.652 7.298 4.887 7.472 4.384C7.715 3.684 7.879 2.616 7.954 1.534C7.979 1.172 8.314 0.94 8.621 1.016L8.883 1.082C9.043 1.122 9.141 1.225 9.171 1.337C9.57939 2.89302 9.52903 4.53395 9.026 6.062C8.99753 6.14699 8.99242 6.23807 9.01122 6.3257C9.03002 6.41334 9.07203 6.49431 9.13285 6.56014C9.19368 6.62598 9.27108 6.67425 9.35695 6.69991C9.44283 6.72557 9.53403 6.72767 9.621 6.706L9.624 6.705L9.638 6.702L9.696 6.688C10.038 6.61538 10.3839 6.56296 10.732 6.531C11.395 6.471 12.189 6.477 12.842 6.695C13.017 6.753 13.292 6.995 13.412 7.345C13.519 7.653 13.499 8.015 13.146 8.367L12.793 8.72L13.146 9.074C13.189 9.117 13.251 9.215 13.3 9.389C13.348 9.556 13.375 9.759 13.375 9.97C13.375 10.182 13.348 10.384 13.3 10.552C13.25 10.726 13.189 10.824 13.146 10.867L12.793 11.22L13.146 11.574C13.193 11.621 13.255 11.751 13.151 12.062C13.0426 12.3636 12.8704 12.6382 12.646 12.867L12.293 13.22L12.646 13.574C12.652 13.579 12.687 13.624 12.687 13.744C12.6826 13.8907 12.6409 14.0338 12.566 14.16C12.401 14.448 12.063 14.72 11.5 14.72V14.721Z" fill="black"/>
</g>
<defs>
<clipPath id="clip0_273_3">
<rect width="16" height="16" fill="white"/>
</clipPath>
</defs>
</svg>
