<svg width="100" height="100" viewBox="0 0 100 100" fill="none" xmlns="http://www.w3.org/2000/svg">
<path d="M19.1425 50.8572C21.5465 50.8572 23.4953 48.9084 23.4953 46.5044C23.4953 44.1005 21.5465 42.1517 19.1425 42.1517C16.7386 42.1517 14.7898 44.1005 14.7898 46.5044C14.7898 48.9084 16.7386 50.8572 19.1425 50.8572Z" fill="black"/>
<path d="M49.5598 84.0955L43.4379 85.6259L40.9891 74.1985C40.8395 73.5142 40.4611 72.9014 39.9163 72.461C39.3716 72.0206 38.6931 71.7791 37.9926 71.7761H26.6657L25.8406 64.6254H39.8399V60.5392H25.3691L24.8412 55.9646C24.7951 55.5648 24.6707 55.178 24.4751 54.8263C24.2795 54.4745 24.0165 54.1648 23.7012 53.9147C23.3858 53.6646 23.0244 53.4791 22.6373 53.3687C22.2503 53.2584 21.8453 53.2253 21.4455 53.2714L16.3716 53.8569L18.9112 75.8622H37.1673L40.3287 90.6153L50.5513 88.0596L49.5598 84.0955Z" fill="black"/>
<path d="M19.4091 95.2714C15.8565 95.2709 12.4144 94.0359 9.6718 91.7778C6.92917 89.5197 5.0564 86.3787 4.37387 82.8922C3.69135 79.4058 4.24149 75.7905 5.93018 72.6649C7.61886 69.5392 10.3412 67.0975 13.6313 65.7574L13.1488 61.5755C5.509 64.1859 0 71.4357 0 79.9484C0 90.6506 8.70691 99.3576 19.4091 99.3576C22.7492 99.3559 26.0323 98.4926 28.9412 96.8513C31.8501 95.2099 34.2864 92.8459 36.0147 89.9878L34.7321 84.0346C32.6891 90.1638 26.8919 95.2714 19.4091 95.2714Z" fill="black"/>
<path d="M41.9199 62.7C41.9199 64.3276 42.9337 65.34 44.5599 65.34C46.1901 65.34 47.1999 64.3276 47.1999 62.7V38.28H49.8399V62.7C49.8399 64.3249 50.8523 65.34 52.4799 65.34C54.1075 65.34 55.1199 64.3276 55.1199 62.7V21.12H56.4399V36.0545C56.4399 39.2159 60.4078 39.2159 60.3999 36.0545V20.0125C60.3999 16.5198 57.884 14.52 53.7999 14.52H43.2399C39.5175 14.52 36.6399 16.1291 36.6399 19.9148V36.96C36.6399 39.6 40.5999 39.6 40.5999 36.96V21.12H41.9199V62.7Z" fill="#CB3267"/>
<path d="M48.3549 12.21C51.3621 12.21 53.7999 9.7722 53.7999 6.76501C53.7999 3.75782 51.3621 1.32001 48.3549 1.32001C45.3477 1.32001 42.9099 3.75782 42.9099 6.76501C42.9099 9.7722 45.3477 12.21 48.3549 12.21Z" fill="#CB3267"/>
<path d="M81.3549 12.21C84.3621 12.21 86.7999 9.7722 86.7999 6.76501C86.7999 3.75782 84.3621 1.32001 81.3549 1.32001C78.3477 1.32001 75.9099 3.75782 75.9099 6.76501C75.9099 9.7722 78.3477 12.21 81.3549 12.21Z" fill="#CB3267"/>
<path d="M94.6052 42.9L86.8053 21.4671L86.7605 21.2467C86.7605 20.9339 87.0231 20.6804 87.3505 20.6804C87.629 20.6804 87.8627 20.8665 87.9247 21.1147L93.2271 34.98C93.5796 35.7733 95.0289 36.3 95.982 36.3C97.2558 36.3 97.3878 33.7986 97.3601 33.66L92.0576 20.3187C91.5969 17.255 88.5029 14.52 84.9719 14.52H78.0617C74.5307 14.52 71.2082 17.255 70.7462 20.3187L65.6814 33.825C65.5665 34.0877 65.6814 36.3831 67.0595 36.3831C68.13 36.3831 69.5543 35.9687 69.813 35.0222L74.928 21.0777C74.9713 20.9649 75.0476 20.8678 75.147 20.799C75.2463 20.7302 75.3642 20.6931 75.485 20.6923C75.8097 20.6923 76.0724 20.9405 76.0724 21.252L76.0368 21.4513L68.4362 42.9026C68.4204 42.966 68.4362 44.4866 68.4362 44.5513C68.4362 45.008 69.5397 46.2013 70.0176 46.2013H74.9201V62.8267C74.9201 64.1995 76.1292 65.3413 77.5601 65.3413C78.9909 65.3413 80.2001 64.1982 80.2001 62.8267V45.5281C80.2001 45.1545 82.8401 45.1664 82.8401 45.54V62.7C82.8401 64.0728 84.0505 65.34 85.4801 65.34C86.9136 65.34 88.1201 64.0715 88.1201 62.7V46.2H93.2271C93.705 46.2 94.6052 45.0067 94.6052 44.55C94.6052 44.4444 94.6435 42.9911 94.6052 42.9Z" fill="#CB3267"/>
</svg>
